Coordinates
version=1
nRows=5
nColumns=63
inDegrees=yes

Units are S.I. units (second, meters, Newtons, ...)
If the header above contains a line with 'inDegrees', this indicates whether rotational values are in degrees (yes) or radians (no).

endheader
time	pelvis_tilt	pelvis_list	pelvis_rotation	pelvis_tx	pelvis_ty	pelvis_tz	hip_flexion_r	hip_adduction_r	hip_rotation_r	knee_angle_r	knee_angle_r_beta	ankle_angle_r	subtalar_angle_r	mtp_angle_r	hip_flexion_l	hip_adduction_l	hip_rotation_l	knee_angle_l	knee_angle_l_beta	ankle_angle_l	subtalar_angle_l	mtp_angle_l	L5_S1_Flex_Ext	L5_S1_Lat_Bending	L5_S1_axial_rotation	L4_L5_Flex_Ext	L4_L5_Lat_Bending	L4_L5_axial_rotation	L3_L4_Flex_Ext	L3_L4_Lat_Bending	L3_L4_axial_rotation	L2_L3_Flex_Ext	L2_L3_Lat_Bending	L2_L3_axial_rotation	L1_L2_Flex_Ext	L1_L2_Lat_Bending	L1_L2_axial_rotation	L1_T12_Flex_Ext	L1_T12_Lat_Bending	L1_T12_axial_rotation	Abs_r3	Abs_r2	Abs_r1	Abs_t1	Abs_t2	neck_flexion	neck_bending	neck_rotation	arm_flex_r	arm_add_r	arm_rot_r	elbow_flex_r	pro_sup_r	wrist_flex_r	wrist_dev_r	arm_flex_l	arm_add_l	arm_rot_l	elbow_flex_l	pro_sup_l	wrist_flex_l	wrist_dev_l
      2.68750000	     -4.60228579	     14.74899826	    105.52889560	      0.21551584	      1.14869949	      0.32859247	    -19.85366376	      1.26112473	     -9.93075974	     20.84306953	      0.36378019	     37.29313899	      1.43397865	      0.00000000	    -15.23045355	     -2.86841505	      5.88409305	     24.25281925	      0.42329155	     38.59869158	      8.65983951	      0.00000000	     -0.16708171	      0.08408015	      0.55601035	     -0.31028744	      0.11182660	      0.59076099	     -0.27449854	      0.20443248	      0.59076099	     -0.19095768	      0.20443248	      0.48650905	     -0.15515207	      0.17145625	      0.45175841	     -0.09547049	      0.13024016	      0.41700776	     -1.19344792	      0.95113149	      3.09236274	      0.00000000	      0.00000000	      7.59355245	     -3.91195786	     -8.97758234	     21.98348789	     -5.47641936	     -3.62413211	    137.65087481	     88.70918842	      5.43172104	      8.90747360	     38.05231396	     -3.98061559	     36.86978727	    120.73946498	     88.81294789	    -37.07961874	    -18.02225948
      2.70833333	     -4.35456801	     14.39952328	    105.30312602	      0.21498165	      1.14795036	      0.32888140	    -19.56842731	      1.33519030	     -9.67927555	     20.72360880	      0.36169521	     36.72251051	      0.86615444	      0.00000000	    -14.96903983	     -2.85026031	      6.22816892	     24.16306207	      0.42172499	     38.52157148	      8.43616019	      0.00000000	     -0.16905932	      0.09620253	      0.44409297	     -0.31396005	      0.12794937	      0.47184878	     -0.27774755	      0.23390684	      0.47184878	     -0.19321789	      0.23390684	      0.38858135	     -0.15698848	      0.19617621	      0.36082554	     -0.09660049	      0.14901772	      0.33306973	     -1.20757378	      1.08826230	      2.46991185	      0.00000000	      0.00000000	      7.97474396	     -3.25109182	     -8.03197405	     22.07640109	     -5.53561426	     -3.12587356	    138.14838551	     88.71962321	      6.08255021	      9.23265051	     38.13364041	     -4.46642182	     36.93225281	    121.06742228	     88.88429753	    -37.14376565	    -18.48158585
      2.72916667	     -4.09418650	     13.94932521	    104.98477945	      0.21438701	      1.14701577	      0.32921102	    -19.15885619	      1.38067882	     -9.16142483	     20.64746840	      0.36036631	     36.17135700	      0.04378384	      0.00000000	    -14.71244603	     -2.80097067	      6.46068363	     23.88176007	      0.41681534	     38.45063682	      8.26186824	      0.00000000	     -0.16575816	      0.11573162	      0.25391130	     -0.30782949	      0.15392305	      0.26978076	     -0.27232409	      0.28138986	      0.26978076	     -0.18944501	      0.28138986	      0.22217239	     -0.15392303	      0.23599992	      0.20630294	     -0.09471421	      0.17926828	      0.19043348	     -1.18399399	      1.30917921	      1.41217850	      0.00000000	      0.00000000	      8.83231831	     -2.82367322	     -6.40988401	     22.42928377	     -5.83955397	     -1.89576380	    138.55759573	     88.73876336	      6.71203712	     10.13626162	     37.90190876	     -5.28916906	     36.62621952	    121.70845823	     88.96538971	    -36.96599118	    -18.70360526
      2.75000000	     -3.78872432	     13.33889601	    104.54082269	      0.21386440	      1.14609610	      0.32949511	    -18.55335182	      1.39460768	     -8.43138110	     20.56893307	      0.35899561	     35.70506392	     -0.69456331	      0.00000000	    -14.36088297	     -2.74885324	      6.48580093	     23.44334747	      0.40916360	     38.32054089	      8.16855792	      0.00000000	     -0.14633728	      0.14367955	      0.03978373	     -0.27176295	      0.19109380	      0.04227021	     -0.24041751	      0.34934245	      0.04227021	     -0.16724887	      0.34934245	      0.03481076	     -0.13588879	      0.29299133	      0.03232428	     -0.08361712	      0.22255962	      0.02983780	     -1.04527253	      1.62533177	      0.22126516	      0.00000000	      0.00000000	     10.12709711	     -2.52966981	     -4.37495108	     22.91133129	     -6.46490301	      0.01654769	    138.95985375	     88.74829594	      6.49697185	     12.08878181	     37.15220551	     -6.27689975	     35.77265309	    122.64847006	     89.05931628	    -35.72296111	    -18.04063854
      2.77083333	     -3.43529202	     12.63576050	    104.06848763	      0.21357644	      1.14552627	      0.32949156	    -17.85764837	      1.51109949	     -7.27013924	     20.35139335	      0.35519882	     35.25903339	     -1.63979294	      0.00000000	    -13.98525112	     -2.79560765	      6.29568836	     22.80940375	      0.39809920	     38.13461067	      8.38214847	      0.00000000	     -0.12327595	      0.17472244	     -0.14992260	     -0.22893576	      0.23238084	     -0.15929276	     -0.20253006	      0.42482013	     -0.15929276	     -0.14089208	      0.42482013	     -0.13118227	     -0.11447405	      0.35629399	     -0.12181211	     -0.07043988	      0.27064505	     -0.11244195	     -0.88054778	      1.97649514	     -0.83382451	      0.00000000	      0.00000000	     11.69334913	     -2.35674772	     -2.72339185	     23.31894715	     -7.66897109	      2.93325838	    139.59460309	     88.75924696	      2.75222904	     14.72016317	     35.25194285	     -7.11882754	     32.71338833	    124.31353805	     89.20647826	    -26.23809205	    -13.38707419
